<svg width="80" height="80" viewBox="0 0 80 80" fill="none" xmlns="http://www.w3.org/2000/svg">
  <!-- 다각형 구체 모양의 GCF 로고 -->
  
  <!-- 상단 밝은 녹색 삼각형들 -->
  <polygon points="40,5 25,20 40,25" fill="#8BC34A"/>
  <polygon points="40,5 55,20 40,25" fill="#9CCC65"/>
  <polygon points="40,25 25,20 15,35" fill="#7CB342"/>
  <polygon points="40,25 55,20 65,35" fill="#8BC34A"/>
  
  <!-- 중간 녹색-청록색 영역 -->
  <polygon points="15,35 25,20 10,45" fill="#66BB6A"/>
  <polygon points="25,20 40,25 25,40" fill="#4CAF50"/>
  <polygon points="40,25 55,20 55,40" fill="#26A69A"/>
  <polygon points="55,20 65,35 70,45" fill="#2E7D32"/>
  
  <!-- 중앙 핵심 영역 -->
  <polygon points="25,40 40,25 40,45" fill="#00695C"/>
  <polygon points="40,25 55,40 40,45" fill="#00796B"/>
  <polygon points="40,45 25,40 30,55" fill="#004D40"/>
  <polygon points="40,45 55,40 50,55" fill="#00695C"/>
  
  <!-- 하단 청록-파랑 영역 -->
  <polygon points="25,40 15,35 20,55" fill="#26A69A"/>
  <polygon points="30,55 20,55 25,65" fill="#0097A7"/>
  <polygon points="40,45 30,55 40,65" fill="#00838F"/>
  <polygon points="50,55 55,40 65,35" fill="#006064"/>
  <polygon points="40,65 50,55 45,70" fill="#0277BD"/>
  
  <!-- 최하단 파랑 영역 -->
  <polygon points="30,55 25,65 35,70" fill="#0288D1"/>
  <polygon points="40,65 35,70 40,75" fill="#0277BD"/>
  <polygon points="50,55 45,70 55,65" fill="#01579B"/>
  
  <!-- 추가 세부 삼각형들 -->
  <polygon points="15,35 10,45 20,55" fill="#2E7D32"/>
  <polygon points="65,35 70,45 60,55" fill="#1B5E20"/>
  <polygon points="25,65 35,70 30,75" fill="#01579B"/>
  <polygon points="55,65 45,70 50,75" fill="#0D47A1"/>
</svg>